@startuml proxy_pattern

!define DARKORANGE
!includeurl https://raw.githubusercontent.com/Drakemor/RedDress-PlantUML/master/style.puml

abstract class Subject <<Image>>{
    + {abstract} do_action();
}

class RealSubject <<RealImage>>{
    + do_action();
}

class Proxy <<ProxyImage>>{
    + do_action();
}

allow_mixing
rectangle Client #DarkOliveGreen

Client -left-> Subject
Subject <|-- RealSubject
Subject <|-- Proxy
RealSubject <-left- Proxy : <<delegate>>

@enduml